<?xml version="1.0" encoding="UTF-8"?>
<svg width="179px" height="60px" viewBox="0 0 179 60" version="1.1" xmlns="http://www.w3.org/2000/svg" xmlns:xlink="http://www.w3.org/1999/xlink">
    <!-- Generator: Sketch 47.1 (45422) - http://www.bohemiancoding.com/sketch -->
    <title>logo</title>
    <desc>Created with Sketch.</desc>
    <defs></defs>
    <g id="Symbols" stroke="none" stroke-width="1" fill="none" fill-rule="evenodd">
        <g id="menu" transform="translate(-238.000000, -28.000000)">
            <g id="logo" transform="translate(238.000000, 28.000000)">
                <path d="M22.4191875,19.15125 C19.6798125,27.4875 13.8935625,34.89375 8.7298125,39.226875 C11.4766875,38.84625 15.3279375,38.326875 19.4229375,37.93125 C22.9760625,31.126875 24.6523125,23.833125 24.5791875,16.933125 C24.5641875,14.79375 24.3748125,12.699375 24.0223125,10.663125 C23.8985625,13.54125 23.3266875,16.39875 22.4191875,19.15125" id="Fill-1" fill="#CA090F"></path>
                <path d="M36.415875,39.102375 C37.323375,39.514875 38.062125,40.00425 38.634,40.55925 C38.913375,40.833 39.160875,41.123625 39.367125,41.423625 C41.1615,34.144875 40.567125,26.61675 37.960875,19.681125 C35.07525,12.027375 29.73525,5.088 22.4115,0.001125 C24.997125,4.981125 26.365875,10.801125 26.4315,16.917375 C26.497125,23.757375 24.924,30.957375 21.58275,37.73925 C28.402125,37.227375 33.112125,37.696125 36.02025,38.926125 C36.144,38.9805 36.262125,39.02925 36.370875,39.087375 L36.415875,39.102375 Z" id="Fill-3" fill="#FF6041"></path>
                <path d="M37.6014375,46.7341875 L37.6389375,46.6460625 C38.0626875,45.6148125 38.2464375,44.6773125 38.1658125,43.8635625 L38.1658125,43.8560625 C38.1076875,43.1979375 37.8658125,42.5960625 37.4270625,42.0766875 C37.0164375,41.5854375 36.4295625,41.1616875 35.6608125,40.7866875 L35.6458125,40.7866875 L35.6383125,40.7810625 C34.9426875,40.4660625 34.1008125,40.2035625 33.1201875,39.9823125 C30.1689375,39.3466875 26.0289375,39.1985625 20.5801875,39.6823125 C17.9870625,44.3829375 14.5239375,48.8510625 10.1289375,52.7923125 C7.1776875,55.4360625 3.8008125,57.8529375 0.0001875,59.9398125 C9.1914375,58.6798125 17.5333125,56.9079375 24.0808125,54.7554375 C31.1795625,52.4191875 36.1070625,49.6873125 37.6014375,46.7341875" id="Fill-5" fill="#FF0011"></path>
                <path d="M62.8333125,35.161875 L60.6376875,35.161875 L60.6376875,20.060625 L53.3270625,20.060625 L53.3270625,35.161875 L51.1370625,35.161875 L51.1370625,22.00875 C51.1370625,21.275625 51.0339375,20.690625 50.8295625,20.2425 C50.6326875,19.79625 50.1639375,19.569375 49.4308125,19.569375 L48.9395625,19.569375 L48.9395625,19.085625 L62.8333125,19.085625 L62.8333125,35.161875 Z" id="Fill-7" fill="#555656"></path>
                <path d="M66.6639375,26.6383125 C66.6639375,25.9033125 66.5626875,25.3183125 66.3639375,24.8720625 C66.1595625,24.4258125 65.6908125,24.1989375 64.9576875,24.1989375 L64.4739375,24.1989375 L64.4739375,23.7133125 L66.6639375,23.7133125 C67.2789375,23.7133125 67.7476875,23.8033125 68.0626875,23.9795625 C68.3851875,24.1614375 68.6064375,24.4333125 68.7376875,24.8045625 L68.8614375,24.8045625 C69.1033125,24.4970625 69.4839375,24.1989375 70.0051875,23.9064375 C70.5245625,23.6120625 71.2351875,23.4733125 72.1501875,23.4733125 C72.8758125,23.4733125 73.5208125,23.6270625 74.0626875,23.9420625 C74.6045625,24.2626875 75.0583125,24.6901875 75.4239375,25.2245625 C75.7914375,25.7589375 76.0689375,26.3889375 76.2526875,27.1145625 C76.4420625,27.8383125 76.5301875,28.6070625 76.5301875,29.4433125 C76.5301875,30.2701875 76.4420625,31.0464375 76.2526875,31.7645625 C76.0689375,32.4901875 75.7839375,33.1201875 75.4033125,33.6545625 C75.0208125,34.1889375 74.5389375,34.6201875 73.9595625,34.9351875 C73.3876875,35.2501875 72.6995625,35.4114375 71.9008125,35.4114375 C71.2201875,35.4114375 70.6351875,35.3308125 70.1514375,35.1770625 C69.6601875,35.0233125 69.2345625,34.8545625 68.8614375,34.6801875 L68.8614375,39.7914375 L66.6639375,39.7914375 L66.6639375,26.6383125 Z M68.8614375,33.7051875 C69.2345625,33.8814375 69.6170625,34.0501875 70.0183125,34.2039375 C70.4139375,34.3576875 70.8020625,34.4383125 71.1770625,34.4383125 C71.7264375,34.4383125 72.1951875,34.3051875 72.5758125,34.0426875 C72.9564375,33.7858125 73.2714375,33.4351875 73.5133125,32.9870625 C73.7551875,32.5389375 73.9370625,32.0064375 74.0476875,31.3989375 C74.1639375,30.7895625 74.2164375,30.1389375 74.2164375,29.4433125 C74.2164375,28.7401875 74.1639375,28.0858125 74.0626875,27.4801875 C73.9520625,26.8726875 73.7833125,26.3439375 73.5489375,25.8958125 C73.3145625,25.4514375 73.0220625,25.0914375 72.6695625,24.8364375 C72.3264375,24.5701875 71.9008125,24.4483125 71.4189375,24.4483125 C71.0739375,24.4483125 70.7739375,24.4839375 70.5170625,24.5645625 C70.2526875,24.6451875 70.0258125,24.7558125 69.8214375,24.8945625 C69.6170625,25.0333125 69.4333125,25.1926875 69.2720625,25.3708125 C69.1108125,25.5470625 68.9720625,25.7289375 68.8614375,25.9033125 L68.8614375,33.7051875 Z" id="Fill-9" fill="#555656"></path>
                <path d="M77.98725,29.4435 C77.98725,28.60725 78.105375,27.8385 78.33975,27.11475 C78.581625,26.389125 78.92475,25.759125 79.387875,25.22475 C79.856625,24.690375 80.411625,24.262875 81.071625,23.940375 C81.731625,23.625375 82.485375,23.471625 83.34975,23.471625 C84.191625,23.471625 84.945375,23.625375 85.612875,23.940375 C86.2785,24.262875 86.842875,24.690375 87.311625,25.22475 C87.772875,25.759125 88.117875,26.389125 88.35975,27.11475 C88.594125,27.8385 88.710375,28.60725 88.710375,29.4435 C88.710375,30.2685 88.594125,31.04475 88.35975,31.76475 C88.117875,32.490375 87.772875,33.120375 87.311625,33.65475 C86.842875,34.189125 86.2785,34.620375 85.612875,34.935375 C84.945375,35.250375 84.191625,35.411625 83.34975,35.411625 C82.485375,35.411625 81.731625,35.250375 81.071625,34.935375 C80.411625,34.620375 79.856625,34.189125 79.387875,33.65475 C78.92475,33.120375 78.581625,32.490375 78.33975,31.76475 C78.105375,31.04475 77.98725,30.2685 77.98725,29.4435 M86.396625,29.4435 C86.396625,28.740375 86.3235,28.086 86.17725,27.480375 C86.029125,26.872875 85.82475,26.344125 85.55475,25.896 C85.282875,25.451625 84.967875,25.091625 84.59475,24.836625 C84.221625,24.570375 83.8035,24.4485 83.34975,24.4485 C82.896,24.4485 82.477875,24.570375 82.10475,24.836625 C81.731625,25.091625 81.409125,25.451625 81.14475,25.896 C80.872875,26.344125 80.6685,26.872875 80.52225,27.480375 C80.376,28.086 80.302875,28.740375 80.302875,29.4435 C80.302875,30.139125 80.376,30.78975 80.52225,31.399125 C80.6685,32.006625 80.872875,32.539125 81.14475,32.98725 C81.409125,33.435375 81.731625,33.784125 82.10475,34.042875 C82.477875,34.305375 82.896,34.4385 83.34975,34.4385 C83.8035,34.4385 84.221625,34.305375 84.59475,34.042875 C84.967875,33.784125 85.282875,33.435375 85.55475,32.98725 C85.82475,32.539125 86.029125,32.006625 86.17725,31.399125 C86.3235,30.78975 86.396625,30.139125 86.396625,29.4435" id="Fill-11" fill="#555656"></path>
                <path d="M96.40125,35.161875 L95.9175,35.161875 L91.771875,26.02875 L91.771875,35.161875 L90.796875,35.161875 L90.796875,23.715 L93.1125,23.715 L96.766875,31.756875 L100.42125,23.715 L102.61125,23.715 L102.61125,31.5075 C102.61125,31.96125 102.66375,32.409375 102.75,32.848125 C102.838125,33.286875 102.96375,33.676875 103.1175,34.02 C103.27125,34.365 103.460625,34.635 103.6875,34.84875 C103.91625,35.060625 104.16375,35.161875 104.443125,35.161875 L104.443125,35.653125 C103.681875,35.653125 103.044375,35.5575 102.530625,35.360625 C102.01875,35.161875 101.600625,34.891875 101.285625,34.53375 C100.970625,34.17375 100.74375,33.7425 100.62,33.22875 C100.486875,32.716875 100.42125,32.145 100.42125,31.5075 L100.42125,26.270625 L96.40125,35.161875 Z" id="Fill-13" fill="#555656"></path>
                <path d="M111.36375,35.161875 L109.17375,35.161875 L109.17375,22.00875 C109.17375,21.275625 109.0725,20.690625 108.86625,20.2425 C108.669375,19.79625 108.200625,19.569375 107.4675,19.569375 L106.98375,19.569375 L106.98375,19.085625 L113.319375,19.085625 C113.833125,19.085625 114.448125,19.130625 115.14375,19.231875 C115.839375,19.3275 116.505,19.539375 117.1425,19.876875 C117.7725,20.206875 118.306875,20.698125 118.7475,21.34875 C119.18625,22.00125 119.405625,22.865625 119.405625,23.956875 C119.405625,24.6525 119.304375,25.2525 119.105625,25.75125 C118.90125,26.2425 118.636875,26.65875 118.306875,27.00375 C117.984375,27.34125 117.62625,27.61875 117.223125,27.830625 C116.8275,28.044375 116.431875,28.198125 116.02875,28.306875 C115.635,28.41 115.26,28.48125 114.909375,28.52625 C114.564375,28.56375 114.271875,28.58625 114.045,28.58625 L111.36375,28.58625 L111.36375,35.161875 Z M113.195625,27.736875 C113.53125,27.736875 113.919375,27.669375 114.3525,27.538125 C114.78375,27.406875 115.194375,27.1875 115.5825,26.88 C115.970625,26.570625 116.300625,26.169375 116.5725,25.678125 C116.835,25.179375 116.97375,24.564375 116.97375,23.833125 C116.97375,23.1075 116.835,22.4925 116.5725,21.99375 C116.300625,21.5025 115.970625,21.099375 115.5825,20.791875 C115.194375,20.476875 114.78375,20.265 114.3525,20.13375 C113.919375,20.0025 113.53125,19.935 113.195625,19.935 C112.888125,19.935 112.565625,19.9575 112.228125,20.008125 C111.898125,20.060625 111.613125,20.11875 111.36375,20.176875 L111.36375,27.4875 C111.613125,27.553125 111.898125,27.61125 112.228125,27.661875 C112.565625,27.706875 112.888125,27.736875 113.195625,27.736875 L113.195625,27.736875 Z" id="Fill-15" fill="#FF0011"></path>
                <path d="M127.535625,28.8283125 C127.535625,27.4145625 127.33125,26.3308125 126.905625,25.5751875 C126.481875,24.8214375 125.844375,24.4483125 124.98,24.4483125 C124.606875,24.4483125 124.269375,24.5570625 123.954375,24.7708125 C123.646875,24.9901875 123.3825,25.2976875 123.155625,25.6858125 C122.92875,26.0739375 122.746875,26.5426875 122.61375,27.0751875 C122.49,27.6114375 122.424375,28.1983125 122.424375,28.8283125 L127.535625,28.8283125 Z M129.80625,29.8014375 L122.424375,29.8014375 C122.424375,30.4689375 122.4975,31.0914375 122.64375,31.6539375 C122.79,32.2258125 123.001875,32.7170625 123.28875,33.1333125 C123.57375,33.5439375 123.91875,33.8664375 124.32,34.0933125 C124.730625,34.3201875 125.191875,34.4383125 125.713125,34.4383125 C126.51,34.4383125 127.17,34.2601875 127.696875,33.9245625 C128.22375,33.5814375 128.7,33.1051875 129.125625,32.4826875 L129.609375,32.8483125 C129.06,33.7783125 128.4225,34.4383125 127.696875,34.8264375 C126.97125,35.2145625 126.151875,35.4114375 125.221875,35.4114375 C124.365,35.4114375 123.616875,35.2501875 122.98125,34.9351875 C122.35125,34.6201875 121.815,34.1889375 121.38375,33.6545625 C120.958125,33.1201875 120.6375,32.4901875 120.42375,31.7645625 C120.211875,31.0464375 120.10875,30.2701875 120.10875,29.4433125 C120.10875,28.6070625 120.219375,27.8383125 120.43875,27.1145625 C120.658125,26.3889375 120.973125,25.7589375 121.39875,25.2245625 C121.8225,24.6901875 122.33625,24.2626875 122.93625,23.9420625 C123.53625,23.6270625 124.21875,23.4733125 124.98,23.4733125 C126.635625,23.4733125 127.865625,23.9345625 128.656875,24.8570625 C129.455625,25.7870625 129.85125,27.1070625 129.85125,28.8283125 L129.80625,29.8014375 Z" id="Fill-17" fill="#FF0011"></path>
                <path d="M136.976437,23.4725625 C137.840812,23.4725625 138.566437,23.5306875 139.158937,23.6656875 C139.753312,23.7950625 140.199562,24.0144375 140.507062,24.3219375 C140.653312,24.4681875 140.771437,24.6294375 140.867062,24.8056875 C140.953312,24.9913125 141.013312,25.2013125 141.048937,25.4450625 C141.078937,25.6869375 141.101437,25.9775625 141.107062,26.3094375 C141.114562,26.6450625 141.122062,27.0331875 141.122062,27.4888125 L140.632687,27.4888125 C140.565187,26.4463125 140.237062,25.6869375 139.642687,25.1863125 C139.050187,24.6894375 138.324562,24.4494375 137.467687,24.4494375 C136.845188,24.4494375 136.318312,24.5713125 135.877687,24.8375625 C135.438938,25.0906875 135.080813,25.4525625 134.786437,25.8969375 C134.493937,26.3431875 134.274562,26.8719375 134.135812,27.4813125 C134.002687,28.0869375 133.929563,28.7413125 133.929563,29.4444375 C133.929563,30.1400625 134.002687,30.7888125 134.135812,31.4000625 C134.274562,32.0075625 134.493937,32.5400625 134.786437,32.9863125 C135.080813,33.4344375 135.438938,33.7850625 135.877687,34.0438125 C136.318312,34.3044375 136.845188,34.4394375 137.467687,34.4394375 C138.324562,34.4394375 139.020187,34.2613125 139.562062,33.9238125 C140.096437,33.5825625 140.572687,33.1063125 140.998312,32.4838125 L141.482062,32.8475625 C140.932687,33.7775625 140.287687,34.4394375 139.547062,34.8275625 C138.808312,35.2156875 137.951437,35.4106875 136.976437,35.4106875 C136.068938,35.4106875 135.277687,35.2494375 134.604562,34.9344375 C133.929563,34.6194375 133.372687,34.1900625 132.933937,33.6556875 C132.495187,33.1213125 132.165188,32.4913125 131.945812,31.7656875 C131.726438,31.0456875 131.615813,30.2694375 131.615813,29.4444375 C131.615813,28.6063125 131.726438,27.8375625 131.945812,27.1138125 C132.165188,26.3900625 132.495187,25.7600625 132.933937,25.2256875 C133.372687,24.6894375 133.929563,24.2638125 134.604562,23.9413125 C135.277687,23.6263125 136.068938,23.4725625 136.976437,23.4725625" id="Fill-19" fill="#FF0011"></path>
                <path d="M148.23375,35.410875 L144.33,25.904625 C144.088125,25.2915 143.7375,24.828375 143.27625,24.520875 C142.8075,24.205875 142.273125,24.022125 141.650625,23.958375 L141.650625,23.47275 L143.7225,23.47275 C144.455625,23.47275 145.063125,23.643375 145.539375,23.979 C146.015625,24.322125 146.38875,24.798375 146.645625,25.420875 L149.428125,32.169 L152.4975,23.714625 L153.7125,23.714625 L148.959375,36.7515 C148.7175,37.4115 148.460625,37.960875 148.198125,38.392125 C147.92625,38.82525 147.64125,39.160875 147.34125,39.40275 C147.04125,39.644625 146.71125,39.81525 146.35125,39.903375 C146.000625,39.997125 145.605,40.04025 145.186875,40.04025 L144.455625,40.04025 L144.455625,39.307125 C144.81375,39.307125 145.15125,39.273375 145.48125,39.20025 C145.801875,39.12525 146.10375,38.992125 146.36625,38.81025 C146.638125,38.619 146.8875,38.364 147.114375,38.028375 C147.34125,37.6965 147.553125,37.270875 147.744375,36.7515 L148.23375,35.410875 Z" id="Fill-21" fill="#FF0011"></path>
                <path d="M157.000875,26.6383125 C157.000875,25.9033125 156.89775,25.3183125 156.693375,24.8720625 C156.489,24.4258125 156.02025,24.1989375 155.294625,24.1989375 L154.803375,24.1989375 L154.803375,23.7133125 L157.000875,23.7133125 C157.615875,23.7133125 158.084625,23.8033125 158.399625,23.9795625 C158.714625,24.1614375 158.9415,24.4333125 159.067125,24.8045625 L159.190875,24.8045625 C159.43275,24.4970625 159.813375,24.1989375 160.33275,23.9064375 C160.854,23.6120625 161.572125,23.4733125 162.479625,23.4733125 C163.21275,23.4733125 163.848375,23.6270625 164.39025,23.9420625 C164.934,24.2626875 165.39525,24.6901875 165.753375,25.2245625 C166.119,25.7589375 166.398375,26.3889375 166.58775,27.1145625 C166.7715,27.8383125 166.867125,28.6070625 166.867125,29.4433125 C166.867125,30.2701875 166.7715,31.0464375 166.58775,31.7645625 C166.398375,32.4901875 166.1115,33.1201875 165.730875,33.6545625 C165.35025,34.1889375 164.874,34.6201875 164.2965,34.9351875 C163.717125,35.2501875 163.029,35.4114375 162.23775,35.4114375 C161.557125,35.4114375 160.97025,35.3308125 160.480875,35.1770625 C159.997125,35.0233125 159.564,34.8545625 159.190875,34.6801875 L159.190875,39.7914375 L157.000875,39.7914375 L157.000875,26.6383125 Z M159.190875,33.7051875 C159.564,33.8814375 159.952125,34.0501875 160.34775,34.2039375 C160.743375,34.3576875 161.1315,34.4383125 161.504625,34.4383125 C162.054,34.4383125 162.52275,34.3051875 162.903375,34.0426875 C163.285875,33.7858125 163.600875,33.4351875 163.840875,32.9870625 C164.09025,32.5389375 164.2665,32.0064375 164.377125,31.3989375 C164.493375,30.7895625 164.5515,30.1389375 164.5515,29.4433125 C164.5515,28.7401875 164.500875,28.0858125 164.39025,27.4801875 C164.289,26.8726875 164.11275,26.3439375 163.878375,25.8958125 C163.644,25.4514375 163.3515,25.0914375 163.0065,24.8364375 C162.655875,24.5701875 162.23775,24.4483125 161.7465,24.4483125 C161.410875,24.4483125 161.109,24.4839375 160.8465,24.5645625 C160.589625,24.6451875 160.35525,24.7558125 160.150875,24.8945625 C159.952125,25.0333125 159.77025,25.1926875 159.6015,25.3708125 C159.44025,25.5470625 159.3015,25.7289375 159.190875,25.9033125 L159.190875,33.7051875 Z" id="Fill-23" fill="#FF0011"></path>
                <path d="M174.059812,23.4725625 C174.924187,23.4725625 175.647937,23.5306875 176.242312,23.6656875 C176.834812,23.7950625 177.288562,24.0144375 177.596062,24.3219375 C177.744188,24.4681875 177.860437,24.6294375 177.948563,24.8056875 C178.036687,24.9913125 178.102313,25.2013125 178.132312,25.4450625 C178.160438,25.6869375 178.182938,25.9775625 178.190438,26.3094375 C178.197937,26.6450625 178.205437,27.0331875 178.205437,27.4888125 L177.714188,27.4888125 C177.656063,26.4463125 177.326063,25.6869375 176.731687,25.1863125 C176.139187,24.6894375 175.413562,24.4494375 174.549187,24.4494375 C173.934188,24.4494375 173.407312,24.5713125 172.968563,24.8375625 C172.527938,25.0906875 172.162312,25.4525625 171.869812,25.8969375 C171.575437,26.3431875 171.363563,26.8719375 171.224812,27.4813125 C171.086062,28.0869375 171.020438,28.7413125 171.020438,29.4444375 C171.020438,30.1400625 171.086062,30.7888125 171.224812,31.4000625 C171.363563,32.0075625 171.575437,32.5400625 171.869812,32.9863125 C172.162312,33.4344375 172.527938,33.7850625 172.968563,34.0438125 C173.407312,34.3044375 173.934188,34.4394375 174.549187,34.4394375 C175.413562,34.4394375 176.109188,34.2613125 176.645438,33.9238125 C177.179812,33.5825625 177.663562,33.1063125 178.079813,32.4838125 L178.571063,32.8475625 C178.021687,33.7775625 177.369188,34.4394375 176.630437,34.8275625 C175.897312,35.2156875 175.040437,35.4106875 174.059812,35.4106875 C173.150438,35.4106875 172.359187,35.2494375 171.686062,34.9344375 C171.012937,34.6194375 170.456063,34.1900625 170.015437,33.6556875 C169.576687,33.1213125 169.246688,32.4913125 169.027312,31.7656875 C168.815438,31.0456875 168.704813,30.2694375 168.704813,29.4444375 C168.704813,28.6063125 168.815438,27.8375625 169.027312,27.1138125 C169.246688,26.3900625 169.576687,25.7600625 170.015437,25.2256875 C170.456063,24.6894375 171.012937,24.2638125 171.686062,23.9413125 C172.359187,23.6263125 173.150438,23.4725625 174.059812,23.4725625" id="Fill-25" fill="#FF0011"></path>
                <path d="M53.9565,49.286625 C53.448375,50.6685 52.893375,51.1785 51.712125,51.1785 C51.569625,51.1785 51.3915,51.165375 51.23775,51.141 C51.168375,51.12975 51.097125,51.082875 51.119625,50.966625 L51.168375,50.610375 C51.179625,50.51475 51.204,50.481 51.322125,50.481 C51.3915,50.481 51.640875,50.5035 51.77025,50.5035 C52.360875,50.5035 52.79775,50.24475 53.058375,49.594125 L53.437125,48.68475 L51.355875,43.08225 C51.309,42.952875 51.38025,42.8835 51.509625,42.8835 L51.93525,42.8835 C52.10025,42.8835 52.149,42.919125 52.184625,43.012875 L53.849625,47.73975 L55.480875,43.05975 C55.52775,42.9285 55.574625,42.8835 55.705875,42.8835 L56.095875,42.8835 C56.22525,42.8835 56.2965,42.952875 56.249625,43.08225 L53.9565,49.286625 Z" id="Fill-27" fill="#555656"></path>
                <path d="M60.2983125,43.0959375 C60.2983125,42.9534375 60.3583125,42.8840625 60.4876875,42.8840625 L60.8645625,42.8840625 C60.9958125,42.8840625 61.0539375,42.9534375 61.0539375,43.0959375 L61.0539375,48.3665625 C61.0539375,48.5071875 60.9958125,48.5784375 60.8645625,48.5784375 L60.4876875,48.5784375 C60.3583125,48.5784375 60.2983125,48.5071875 60.2983125,48.3665625 L60.2983125,46.4634375 C59.8970625,46.6040625 59.2351875,46.7465625 58.6201875,46.7465625 C57.1670625,46.7465625 56.7658125,45.9778125 56.7658125,44.7384375 L56.7658125,43.0959375 C56.7658125,42.9534375 56.8239375,42.8840625 56.9533125,42.8840625 L57.3320625,42.8840625 C57.4614375,42.8840625 57.5214375,42.9534375 57.5214375,43.0959375 L57.5214375,44.5959375 C57.5214375,45.4471875 57.6039375,46.0734375 58.8095625,46.0734375 C59.3289375,46.0734375 59.9326875,45.9534375 60.2983125,45.8240625 L60.2983125,43.0959375 Z" id="Fill-29" fill="#555656"></path>
                <path d="M66.4276875,45.009375 C66.4276875,44.075625 65.9551875,43.3425 64.9614375,43.3425 C63.8514375,43.3425 63.2364375,44.2425 63.1314375,45.22125 L66.4276875,45.22125 L66.4276875,45.009375 Z M65.0926875,48.046875 C65.6008125,48.046875 66.1914375,47.94 66.5458125,47.78625 C66.6395625,47.739375 66.7220625,47.76375 66.7576875,47.86875 L66.8401875,48.129375 C66.8758125,48.23625 66.8533125,48.3075 66.7351875,48.3525 C66.2626875,48.5775 65.5183125,48.684375 65.0214375,48.684375 C63.2139375,48.684375 62.3270625,47.4675 62.3270625,45.718125 C62.3270625,44.075625 63.3320625,42.765 64.9858125,42.765 C66.3920625,42.765 67.1833125,43.8525 67.1833125,45.174375 L67.1833125,45.435 C67.1833125,45.673125 67.1476875,45.75375 66.8533125,45.75375 L63.1070625,45.75375 C63.1070625,47.00625 63.7333125,48.046875 65.0926875,48.046875 L65.0926875,48.046875 Z" id="Fill-31" fill="#555656"></path>
                <path d="M69.058125,44.773125 C69.058125,47.06625 69.5775,48.046875 70.783125,48.046875 C71.930625,48.046875 72.46125,46.92375 72.46125,45.789375 C72.46125,44.88 72.13125,43.674375 70.854375,43.674375 C70.063125,43.674375 69.42375,44.1225 69.058125,44.595 L69.058125,44.773125 Z M72.733125,40.18875 C72.826875,40.1775 72.886875,40.21125 72.886875,40.306875 L72.886875,40.755 C72.886875,40.850625 72.84,40.8975 72.744375,40.90875 L71.716875,41.015625 C70.558125,41.145 69.8625,41.50125 69.48375,42.103125 C69.200625,42.54 69.118125,43.119375 69.0825,43.8525 C69.519375,43.355625 70.239375,43.02375 71.0325,43.02375 C72.320625,43.02375 73.2525,43.935 73.2525,45.706875 C73.2525,47.49 72.29625,48.684375 70.7475,48.684375 C68.56125,48.684375 68.278125,46.651875 68.278125,44.83125 C68.278125,43.39125 68.39625,42.2925 69.01125,41.52375 C69.48375,40.90875 70.299375,40.49625 71.574375,40.3425 L72.733125,40.18875 Z" id="Fill-33" fill="#555656"></path>
                <path d="M78.3305625,43.0959375 C78.3305625,42.9534375 78.3886875,42.8840625 78.5199375,42.8840625 L78.8968125,42.8840625 C79.0280625,42.8840625 79.0861875,42.9534375 79.0861875,43.0959375 L79.0861875,48.3665625 C79.0861875,48.5071875 79.0280625,48.5784375 78.8968125,48.5784375 L78.5199375,48.5784375 C78.3886875,48.5784375 78.3305625,48.5071875 78.3305625,48.3665625 L78.3305625,45.8484375 L75.2818125,45.8484375 L75.2818125,48.3665625 C75.2818125,48.5071875 75.2218125,48.5784375 75.0924375,48.5784375 L74.7136875,48.5784375 C74.5843125,48.5784375 74.5261875,48.5071875 74.5261875,48.3665625 L74.5261875,43.0959375 C74.5261875,42.9534375 74.5843125,42.8840625 74.7136875,42.8840625 L75.0924375,42.8840625 C75.2218125,42.8840625 75.2818125,42.9534375 75.2818125,43.0959375 L75.2818125,45.2446875 L78.3305625,45.2446875 L78.3305625,43.0959375 Z" id="Fill-35" fill="#555656"></path>
                <path d="M86.692875,48.365625 C86.692875,48.50625 86.632875,48.5775 86.5035,48.5775 L86.12475,48.5775 C85.995375,48.5775 85.93725,48.50625 85.93725,48.365625 L85.93725,43.095 C85.93725,42.9525 85.995375,42.883125 86.12475,42.883125 L86.5035,42.883125 C86.632875,42.883125 86.692875,42.9525 86.692875,43.095 L86.692875,48.365625 Z M81.42225,48.03375 C81.622875,48.07125 81.95475,48.091875 82.249125,48.091875 C83.100375,48.091875 84.23475,47.8575 84.23475,46.84125 C84.23475,45.89625 83.265375,45.67125 82.4985,45.67125 C82.061625,45.67125 81.7185,45.7425 81.42225,45.83625 L81.42225,48.03375 Z M81.42225,45.234375 C81.776625,45.1275 82.2135,45.045 82.721625,45.045 C83.8335,45.045 85.039125,45.435 85.039125,46.77 C85.039125,48.27 83.490375,48.684375 82.166625,48.684375 C81.754125,48.684375 81.304125,48.64875 80.86725,48.56625 C80.72475,48.54375 80.666625,48.481875 80.666625,48.328125 L80.666625,43.095 C80.666625,42.9525 80.72475,42.883125 80.856,42.883125 L81.232875,42.883125 C81.364125,42.883125 81.42225,42.9525 81.42225,43.095 L81.42225,45.234375 Z" id="Fill-37" fill="#555656"></path>
                <path d="M89.488125,40.5435 C89.581875,40.5435 89.6175,40.567875 89.630625,40.684125 C89.653125,41.122875 89.985,41.4885 90.586875,41.4885 C91.213125,41.4885 91.509375,41.134125 91.545,40.684125 C91.55625,40.567875 91.603125,40.5435 91.685625,40.5435 L92.053125,40.5435 C92.135625,40.5435 92.17125,40.579125 92.17125,40.69725 C92.086875,41.406 91.603125,42.021 90.575625,42.021 C89.595,42.021 89.026875,41.430375 89.004375,40.69725 C89.004375,40.579125 89.04,40.5435 89.1225,40.5435 L89.488125,40.5435 Z M92.086875,43.59225 L92.086875,43.095375 C92.086875,42.952875 92.146875,42.8835 92.27625,42.8835 L92.655,42.8835 C92.784375,42.8835 92.844375,42.952875 92.844375,43.095375 L92.844375,48.366 C92.844375,48.506625 92.784375,48.577875 92.655,48.577875 L92.27625,48.577875 C92.146875,48.577875 92.086875,48.506625 92.086875,48.366 L92.086875,44.526 L89.026875,47.811 L89.026875,48.366 C89.026875,48.506625 88.96875,48.577875 88.8375,48.577875 L88.460625,48.577875 C88.329375,48.577875 88.27125,48.506625 88.27125,48.366 L88.27125,43.095375 C88.27125,42.952875 88.329375,42.8835 88.460625,42.8835 L88.8375,42.8835 C88.96875,42.8835 89.026875,42.952875 89.026875,43.095375 L89.026875,46.911 L92.086875,43.59225 Z" id="Fill-39" fill="#555656"></path>
                <path d="M100.625438,48.0105 L100.625438,43.096125 C100.625438,42.953625 100.685437,42.88425 100.814813,42.88425 L101.193562,42.88425 C101.322937,42.88425 101.381062,42.953625 101.381062,43.096125 L101.381062,48.0105 L101.913562,48.0105 C102.031688,48.0105 102.091688,48.0705 102.091688,48.199875 L102.091688,50.067375 C102.091688,50.209875 102.042937,50.268 101.913562,50.268 L101.594813,50.268 C101.463563,50.268 101.416687,50.209875 101.416687,50.067375 L101.416687,48.578625 L97.1979375,48.578625 C97.0798125,48.578625 97.0216875,48.518625 97.0216875,48.38925 L97.0216875,43.096125 C97.0216875,42.953625 97.0798125,42.88425 97.2110625,42.88425 L97.5879375,42.88425 C97.7191875,42.88425 97.7773125,42.953625 97.7773125,43.096125 L97.7773125,48.0105 L100.625438,48.0105 Z" id="Fill-41" fill="#555656"></path>
                <path d="M107.061563,45.009375 C107.061563,44.075625 106.589063,43.3425 105.595313,43.3425 C104.485313,43.3425 103.870313,44.2425 103.765313,45.22125 L107.061563,45.22125 L107.061563,45.009375 Z M105.726563,48.046875 C106.234688,48.046875 106.825313,47.94 107.179688,47.78625 C107.273438,47.739375 107.355938,47.76375 107.391563,47.86875 L107.474063,48.129375 C107.509688,48.23625 107.487188,48.3075 107.369063,48.3525 C106.896563,48.5775 106.152188,48.684375 105.655313,48.684375 C103.847813,48.684375 102.960938,47.4675 102.960938,45.718125 C102.960938,44.075625 103.965938,42.765 105.619688,42.765 C107.025938,42.765 107.817188,43.8525 107.817188,45.174375 L107.817188,45.435 C107.817188,45.673125 107.781563,45.75375 107.487188,45.75375 L103.740938,45.75375 C103.740938,47.00625 104.367188,48.046875 105.726563,48.046875 L105.726563,48.046875 Z" id="Fill-43" fill="#555656"></path>
                <path d="M112.82475,43.0959375 C112.82475,42.9534375 112.882875,42.8840625 113.014125,42.8840625 L113.391,42.8840625 C113.52225,42.8840625 113.580375,42.9534375 113.580375,43.0959375 L113.580375,48.3665625 C113.580375,48.5071875 113.52225,48.5784375 113.391,48.5784375 L113.014125,48.5784375 C112.882875,48.5784375 112.82475,48.5071875 112.82475,48.3665625 L112.82475,45.8484375 L109.776,45.8484375 L109.776,48.3665625 C109.776,48.5071875 109.716,48.5784375 109.586625,48.5784375 L109.207875,48.5784375 C109.0785,48.5784375 109.020375,48.5071875 109.020375,48.3665625 L109.020375,43.0959375 C109.020375,42.9534375 109.0785,42.8840625 109.207875,42.8840625 L109.586625,42.8840625 C109.716,42.8840625 109.776,42.9534375 109.776,43.0959375 L109.776,45.2446875 L112.82475,45.2446875 L112.82475,43.0959375 Z" id="Fill-45" fill="#555656"></path>
                <path d="M114.6165,43.449375 C114.52275,43.449375 114.474,43.41375 114.474,43.30875 L114.474,43.00125 C114.474,42.91875 114.52275,42.883125 114.6165,42.883125 L119.00025,42.883125 C119.094,42.883125 119.14275,42.91875 119.14275,43.00125 L119.14275,43.30875 C119.14275,43.41375 119.094,43.449375 119.00025,43.449375 L117.168375,43.449375 L117.168375,48.365625 C117.168375,48.50625 117.11025,48.5775 116.979,48.5775 L116.602125,48.5775 C116.470875,48.5775 116.41275,48.50625 116.41275,48.365625 L116.41275,43.449375 L114.6165,43.449375 Z" id="Fill-47" fill="#555656"></path>
                <path d="M122.448,43.356 C121.82175,43.356 121.113,43.732875 120.781125,44.22975 L120.781125,47.12475 C121.053,47.6685 121.714875,48.09225 122.3655,48.09225 C123.54675,48.09225 124.18425,47.1135 124.18425,45.694125 C124.18425,44.089125 123.453,43.356 122.448,43.356 M122.412375,48.68475 C121.8105,48.68475 121.159875,48.43725 120.781125,47.951625 L120.781125,50.917875 C120.781125,51.0585 120.723,51.1185 120.59175,51.1185 L120.214875,51.1185 C120.083625,51.1185 120.0255,51.0585 120.0255,50.917875 L120.0255,43.072875 C120.0255,42.919125 120.09675,42.8835 120.226125,42.8835 L120.50925,42.8835 C120.676125,42.8835 120.7455,42.9285 120.7455,43.095375 L120.7455,43.55475 C121.148625,43.072875 121.879875,42.765375 122.566125,42.765375 C123.948,42.765375 124.96425,43.746 124.96425,45.694125 C124.96425,47.291625 124.0905,48.68475 122.412375,48.68475" id="Fill-49" fill="#555656"></path>
            </g>
        </g>
    </g>
</svg>